<svg xmlns="http://www.w3.org/2000/svg" viewBox="0 0 100 100">
  <rect width="100" height="100" rx="18" fill="#CC0000"/>
  <polygon points="22,49 27,37 66,34 71,41 28,44" fill="white"/>
  <polygon points="22,48 29,46 31,72 24,72" fill="white"/>
  <polygon points="29,44 54,41 57,46 57,61 52,65 29,64" fill="white"/>
  <polygon points="33,48 52,45 54,49 54,58 50,61 33,60" fill="#CC0000"/>
  <polygon points="55,41 62,40 66,72 59,72" fill="white"/>
  <polygon points="62,40 69,42 64,61 57,63" fill="white"/>
  <polygon points="69,42 75,40 72,61 64,61" fill="white"/>
  <polygon points="75,40 82,43 78,72 71,72" fill="white"/>
</svg>
