<svg xmlns="http://www.w3.org/2000/svg" viewBox="0 0 100 100">
  <rect width="100" height="100" rx="18" fill="#CC0000"/>
  <g fill="white">
    <!-- P: diagonal top wing (arrow pointing right) -->
    <polygon points="20,50 26,36 62,32 67,39 24,44"/>
    <!-- P: left stem -->
    <polygon points="20,49 27,45 29,72 22,72"/>
    <!-- P: bowl outer -->
    <polygon points="27,44 51,40 54,44 54,59 49,63 27,62"/>
    <!-- P: bowl counter (hole) -->
    <polygon points="31,48 50,44 52,48 52,57 48,60 31,59" fill="#CC0000"/>
    <!-- M: left outer leg -->
    <polygon points="53,40 61,39 64,72 57,72"/>
    <!-- M: left inner diagonal to V-notch -->
    <polygon points="61,39 68,41 63,60 56,62"/>
    <!-- M: right inner diagonal from V-notch -->
    <polygon points="68,41 74,39 71,60 63,60"/>
    <!-- M: right outer leg -->
    <polygon points="74,39 81,41 77,72 70,72"/>
  </g>
</svg>
